<svg xmlns="http://www.w3.org/2000/svg" xmlns:xlink="http://www.w3.org/1999/xlink" viewBox="0 0 683.37 237.71"><defs><style>.cls-1{isolation:isolate;}.cls-2{opacity:0.25;}.cls-2,.cls-4{mix-blend-mode:multiply;}.cls-3,.cls-7{fill:#009263;}.cls-4{opacity:0.15;}.cls-5{fill:url(#linear-gradient);}.cls-14,.cls-6{fill:none;stroke:#009263;stroke-miterlimit:10;}.cls-6{stroke-width:0.69px;stroke-dasharray:3.1;}.cls-7{font-size:26.06px;font-family:Poppins-Bold, Poppins;font-weight:700;}.cls-8{font-size:9.83px;fill:#00756e;font-family:Poppins-Regular, Poppins;}.cls-9{fill:url(#linear-gradient-2);}.cls-10{fill:url(#linear-gradient-3);}.cls-11{fill:url(#linear-gradient-4);}.cls-12{fill:url(#linear-gradient-5);}.cls-13{font-size:12px;font-family:Poppins-Medium, Poppins;font-weight:500;}.cls-14{stroke-width:0.69px;stroke-dasharray:3.1 3.1;}</style><linearGradient id="linear-gradient" x1="18.41" y1="68.93" x2="99.98" y2="68.93" gradientTransform="translate(66.08 -21.67) rotate(45)" gradientUnits="userSpaceOnUse"><stop offset="0" stop-color="#fff"/><stop offset="1" stop-color="#f1f2f6"/></linearGradient><linearGradient id="linear-gradient-2" x1="157.53" y1="154.9" x2="239.09" y2="154.9" gradientTransform="translate(167.62 -94.85) rotate(45)" xlink:href="#linear-gradient"/><linearGradient id="linear-gradient-3" x1="296.64" y1="68.93" x2="378.2" y2="68.93" gradientTransform="translate(325.54 -275.26) rotate(76.48)" xlink:href="#linear-gradient"/><linearGradient id="linear-gradient-4" x1="435.75" y1="154.9" x2="517.32" y2="154.9" gradientTransform="translate(442.33 -345.01) rotate(68.08)" xlink:href="#linear-gradient"/><linearGradient id="linear-gradient-5" x1="574.86" y1="68.93" x2="656.43" y2="68.93" gradientTransform="translate(583.77 -549.75) rotate(80.66)" xlink:href="#linear-gradient"/></defs><g class="cls-1"><g id="Layer_2" data-name="Layer 2"><g id="OBJECTS"><image class="cls-2" width="125" height="126" transform="translate(1.37 10.99)" xlink:href="timeline1.png"/><circle class="cls-3" cx="59.2" cy="68.93" r="51.66"/><image class="cls-4" width="104" height="104" transform="translate(12.37 21.99)" xlink:href="timeline2.png"/><circle class="cls-5" cx="59.2" cy="68.93" r="40.78" transform="translate(-31.4 62.05) rotate(-45)"/><circle class="cls-6" cx="59.2" cy="68.93" r="58.85" transform="translate(-31.4 62.05) rotate(-45)"/><text class="cls-7" transform="translate(54.3 72.12)">1</text><text class="cls-8" transform="translate(41.34 84.46)">PHASE 1</text><image class="cls-2" width="126" height="126" transform="translate(140.37 96.99)" xlink:href="timeline3.png"/><circle class="cls-3" cx="198.31" cy="154.9" r="51.66" transform="translate(13.19 325.35) rotate(-80.63)"/><image class="cls-4" width="104" height="104" transform="translate(151.37 107.99)" xlink:href="timeline4.png"/><circle class="cls-9" cx="198.31" cy="154.9" r="40.78" transform="translate(-51.45 185.6) rotate(-45)"/><circle class="cls-6" cx="198.31" cy="154.9" r="58.85" transform="translate(-51.45 185.6) rotate(-45)"/><text class="cls-7" transform="translate(190.87 158.1)">2</text><text class="cls-8" transform="translate(179.2 170.44)">PHASE 2</text><image class="cls-2" width="126" height="126" transform="translate(279.37 10.99)" xlink:href="timeline5.png"/><circle class="cls-3" cx="337.42" cy="68.93" r="51.66"/><image class="cls-4" width="104" height="104" transform="translate(290.37 21.99)" xlink:href="timeline6.png"/><circle class="cls-10" cx="337.42" cy="68.93" r="40.78" transform="translate(191.51 380.87) rotate(-76.48)"/><circle class="cls-6" cx="337.42" cy="68.93" r="58.85" transform="translate(216.28 391.3) rotate(-80.95)"/><text class="cls-7" transform="translate(329.54 72.12)">3</text><text class="cls-8" transform="translate(318.24 84.46)">PHASE 3</text><image class="cls-2" width="126" height="126" transform="translate(418.37 96.99)" xlink:href="timeline7.png"/><circle class="cls-3" cx="476.53" cy="154.9" r="51.66" transform="translate(263.86 608.61) rotate(-82.89)"/><image class="cls-4" width="104" height="104" transform="translate(429.37 107.99)" xlink:href="timeline8.png"/><circle class="cls-11" cx="476.53" cy="154.9" r="40.78" transform="translate(154.92 539.15) rotate(-68.08)"/><circle class="cls-6" cx="476.53" cy="154.9" r="58.85" transform="translate(-15.19 58.54) rotate(-6.92)"/><text class="cls-7" transform="translate(467.71 158.1)">4</text><text class="cls-8" transform="translate(457.16 170.44)">PHASE 4</text><image class="cls-2" width="125" height="126" transform="translate(558.37 10.99)" xlink:href="timeline9.png"/><circle class="cls-3" cx="615.65" cy="68.93" r="51.66"/><image class="cls-4" width="104" height="104" transform="translate(568.37 21.99)" xlink:href="timeline10.png"/><circle class="cls-12" cx="615.65" cy="68.93" r="40.78" transform="translate(447.75 665.23) rotate(-80.66)"/><circle class="cls-6" cx="615.65" cy="68.93" r="58.85" transform="translate(463.03 669.32) rotate(-82.13)"/><text class="cls-7" transform="translate(607.18 72.12)">5</text><text class="cls-8" transform="translate(596.28 84.46)">PHASE 5</text><line class="cls-6" x1="107.77" y1="102.15" x2="146.86" y2="126.31"/><line class="cls-6" x1="386" y1="102.15" x2="425.09" y2="126.31"/><line class="cls-6" x1="567.06" y1="102.15" x2="527.97" y2="126.31"/><line class="cls-6" x1="288.84" y1="102.15" x2="249.75" y2="126.31"/><text class="cls-13" transform="translate(24.8 196.61)">Research &amp; <tspan x="-6.26" y="14.4">Development</tspan></text><text class="cls-13" transform="translate(174.55 13.51)">Sensors<tspan x="-5.87" y="14.4">&amp; Devices</tspan></text><text class="cls-13" transform="translate(302.45 205.05)">Integration<tspan x="5.2" y="14.4">&amp; Testing</tspan></text><text class="cls-13" transform="translate(452.39 10.18)">Demo &amp;<tspan x="-10.96" y="14.4">Prototyping</tspan></text><text class="cls-13" transform="translate(566.81 196.61)">Implementation<tspan x="12.35" y="14.4">&amp; Prediction</tspan></text><line class="cls-14" x1="59.2" y1="127.77" x2="59.2" y2="173"/><path class="cls-3" d="M54,172.74a5.23,5.23,0,1,0,5.23-5.22A5.23,5.23,0,0,0,54,172.74Z"/><line class="cls-14" x1="335.84" y1="127.77" x2="335.84" y2="173"/><path class="cls-3" d="M330.62,172.74a5.22,5.22,0,1,0,5.22-5.22A5.22,5.22,0,0,0,330.62,172.74Z"/><line class="cls-14" x1="198.31" y1="96.05" x2="198.31" y2="50.83"/><circle class="cls-3" cx="198.31" cy="51.09" r="5.22"/><line class="cls-14" x1="476.53" y1="96.05" x2="476.53" y2="50.83"/><path class="cls-3" d="M481.75,51.09a5.22,5.22,0,1,0-5.22,5.22A5.21,5.21,0,0,0,481.75,51.09Z"/><line class="cls-14" x1="615.65" y1="127.77" x2="615.65" y2="173"/><path class="cls-3" d="M610.43,172.74a5.22,5.22,0,1,0,5.22-5.22A5.22,5.22,0,0,0,610.43,172.74Z"/></g></g></g></svg>