<svg xmlns="http://www.w3.org/2000/svg" viewBox="0 0 276.98 117.03">
  <defs>
    <style>
      .cls-3{letter-spacing:.4em}
    </style>
  </defs>
  <g id="Layer_2" data-name="Layer 2">
    <g id="Layer_1-2" data-name="Layer 1">
      <text style="font-size:6.12px;fill:#83c883;font-family:Montserrat-SemiBold,Montserrat;font-weight:600;letter-spacing:.39em" transform="matrix(1.12 0 0 1 86.01 115.41)">P<tspan x="6.83" y="0" style="letter-spacing:.4em">L</tspan><tspan x="12.98" y="0" class="cls-3">AN</tspan><tspan x="27.41" y="0" style="letter-spacing:.36em">TA</tspan><tspan x="40.15" y="0" class="cls-3">TION </tspan><tspan x="69.83" y="0" style="letter-spacing:.39em">W</tspan><tspan x="79.19" y="0" class="cls-3">ITH T</tspan><tspan x="107.4" y="0" style="letter-spacing:.4em">E</tspan><tspan x="113.93" y="0" class="cls-3">CHNO</tspan><tspan x="143.24" y="0" style="letter-spacing:.39em">L</tspan><tspan x="149.28" y="0" class="cls-3">OGY</tspan></text>
      <text style="font-family:Montserrat-ExtraBold,Montserrat;font-weight:800;fill:#e6e7e8;font-size:62.07px;letter-spacing:-.05em" transform="matrix(1.1 0 0 1 83.99 52.76)">SOIL</text>
      <text style="fill:#a7c339;font-size:53.99px;letter-spacing:-.05em;font-family:Montserrat-ExtraBold,Montserrat;font-weight:800" transform="matrix(1.1 0 0 1 83.99 101.15)">SENSE</text>
      <path d="M75.61 95q-2.06-1.17-4.08-2.41a.4.4 0 0 0-.47 0c-1.4.8-2.79 1.59-4.21 2.37a.69.69 0 0 0-.41.72v3.16a.72.72 0 0 1-.31.67q-5.22 3.84-10.42 7.72a.78.78 0 0 1-1.11 0 4.73 4.73 0 0 0-1.09-.64c-.56-.23-.59-.53-.38-1.08q3.4-9 6.75-18.11c.39-1.06.75-2.07 2-2.44.25-.07.33-.3.32-.58v-2.87a.56.56 0 0 0-.33-.57c-.87-.5-1.73-1-2.59-1.52a.43.43 0 0 0-.53 0c-.85.51-1.71 1-2.58 1.45a.53.53 0 0 0-.32.57v1.58a.49.49 0 0 1-.39.57q-3.87 1.25-7.73 2.54a.5.5 0 0 1-.49-.06 929.98 929.98 0 0 0-6.8-4 .76.76 0 0 1-.43-.77v-10l.64.39A16.27 16.27 0 0 0 51.89 74a15.12 15.12 0 0 0 9.33-5.28 15.32 15.32 0 0 0 3.48-12.67A14.6 14.6 0 0 0 61 48.4c-.28-.31-.22-.51 0-.83A11.39 11.39 0 0 0 57.41 32c-.33-.21-.37-.37-.23-.7a9.35 9.35 0 0 0 .58-5.4 9.64 9.64 0 0 0-8.5-7.84c-.37 0-.48-.1-.52-.51a12.58 12.58 0 0 0-1.91-6.12 13 13 0 0 0-7.07-5.1 4.32 4.32 0 0 0-2.76-.2 20.71 20.71 0 0 0-2.83 1.1A11.62 11.62 0 0 0 27.42 17c-.1 1.05-.06 1.06-1.12 1.23a9.58 9.58 0 0 0-7.46 13c.2.49.14.71-.3 1a11.43 11.43 0 0 0-3.84 14.63c.21.4.64.8.59 1.16s-.53.72-.81 1.09a15.26 15.26 0 0 0-3.11 12 14.81 14.81 0 0 0 4 8.16 15.25 15.25 0 0 0 9.85 4.84A16.13 16.13 0 0 0 35 72c.5-.29.57-.17.56.34v9.26a.92.92 0 0 1-.55.9c-2 1.17-4 2.34-6 3.53a1 1 0 0 1-.88.09l-7.44-2.44c-.3-.1-.46-.23-.43-.59s0-1 0-1.46a.75.75 0 0 0-.46-.76c-.82-.42-1.62-.88-2.41-1.36a.56.56 0 0 0-.68 0c-.8.48-1.59 1-2.4 1.4a.7.7 0 0 0-.4.73 20.86 20.86 0 0 1 0 2.5 1 1 0 0 0 .72 1.13 1.93 1.93 0 0 1 1.17 1.31c1 2.75 2 5.47 3.05 8.2 1.38 3.68 2.76 7.37 4.16 11a.46.46 0 0 1-.25.68c-.53.3-1.06.6-1.56.93a.52.52 0 0 1-.7-.06q-5.31-3.95-10.63-7.85a.73.73 0 0 1-.32-.66v-3.29a.48.48 0 0 0-.21-.53q-2.1-1.16-4.2-2.35a.68.68 0 0 0-.77 0C3.06 93.48 1.75 94.24.43 95a.74.74 0 0 0-.42.78c.14 1.54.09 3.09.09 4.64a.62.62 0 0 0 .36.61c1.36.75 2.72 1.5 4.07 2.28a.73.73 0 0 0 .79 0c.91-.55 1.84-1.07 2.73-1.64a.74.74 0 0 1 1 0q5.22 3.89 10.48 7.75a.72.72 0 0 1 .33.65v3.4a.71.71 0 0 0 .43.72c1.41.77 2.8 1.56 4.19 2.37a.63.63 0 0 0 .72 0c1.42-.86 2.85-1.69 4.27-2.53a.49.49 0 0 0 .29-.52v-5a.57.57 0 0 0-.36-.55c-1.15-.64-2.27-1.31-3.42-1.93a1.25 1.25 0 0 1-.61-.71q-3.48-9.35-7-18.68c-.07-.21-.33-.48-.11-.63s.58-.58 1.1-.41c2.51.84 5 1.65 7.56 2.46a.63.63 0 0 1 .49.7c0 3.32.07 6.63.09 9.94a1 1 0 0 0 .56 1 687.6 687.6 0 0 1 9.56 5.37.72.72 0 0 0 .83 0q4.83-2.75 9.71-5.46a.72.72 0 0 0 .41-.72V88.83c0-.27 0-.55.34-.67l7.82-2.57c.42-.13.69.23 1 .42s0 .41-.08.59l-1.89 5.1-5.08 13.55a1.45 1.45 0 0 1-.74.87c-1.1.59-2.18 1.22-3.26 1.83-.17.1-.34.17-.34.44 0 1.73 0 3.45-.1 5.17a.5.5 0 0 0 .29.48c1.44.85 2.88 1.69 4.31 2.55a.57.57 0 0 0 .66 0 313.2 313.2 0 0 1 4.32-2.43.58.58 0 0 0 .33-.57c0-1.18 0-2.36.08-3.53a.86.86 0 0 1 .36-.7l10.59-7.8a.42.42 0 0 1 .58 0c.94.58 1.91 1.12 2.85 1.69.29.17.53.3.88.09 1.38-.8 2.76-1.56 4.15-2.33a.54.54 0 0 0 .32-.58c0-1.54 0-3.08.06-4.63a.8.8 0 0 0-.41-.8ZM38.94 51.35a2.17 2.17 0 0 0-3.37 1.87v5.58c-.24-.25-.4-.39-.54-.53l-7.47-7.61a2.16 2.16 0 0 0-3.69.89 2.13 2.13 0 0 0 .6 2.27l6.91 7c1.3 1.33 2.62 2.66 3.91 4a1.1 1.1 0 0 1-.05 1.6 13.21 13.21 0 0 1-7.35 3.26 10.91 10.91 0 0 1-9.39-3.61 8.94 8.94 0 0 1-1.56-2.23 10.92 10.92 0 0 1-1.24-6.5 11.09 11.09 0 0 1 4.18-7.49 2.23 2.23 0 0 0 0-3.32A6.94 6.94 0 0 1 18 43.21a7 7 0 0 1 4.9-8.31 2.22 2.22 0 0 0 1.1-3.71 5.25 5.25 0 0 1 3.07-8.71 6.46 6.46 0 0 1 2.23.13 2.14 2.14 0 0 0 2.51-2c0-1-.11-1.93 0-2.91a7.09 7.09 0 0 1 3.91-6.23c2.54-1.28 2.15-1.32 4.76 0a7 7 0 0 1 3.8 5.69 20.27 20.27 0 0 1 0 3.57A2.31 2.31 0 0 0 46 22.62a1.71 1.71 0 0 0 .87 0 5.24 5.24 0 0 1 6.6 5.28 5.17 5.17 0 0 1-1.34 3.26 2.19 2.19 0 0 0 1.05 3.76 7 7 0 0 1 5 7 6.47 6.47 0 0 1-2 4.62 2.35 2.35 0 0 0 .19 3.59 10.7 10.7 0 0 1 4 9.77 11 11 0 0 1-9.34 9.77c-4.23.6-7.72-1-10.82-3.69a.82.82 0 0 1-.28-.68v-7.32a1.21 1.21 0 0 1 .34-.86l7.31-8.33 1.69-1.92A2.22 2.22 0 1 0 46 44l-6.33 7.24c-.25.21-.38.33-.73.11Z" style="fill:#e6e7e8"/>
      <path d="M60.42 59.88a11 11 0 0 1-9.34 9.77c-4.23.6-7.72-1-10.82-3.69a.82.82 0 0 1-.28-.68v-7.32a1.21 1.21 0 0 1 .34-.86l7.31-8.33 1.69-1.92A2.22 2.22 0 1 0 46 44l-6.33 7.24c-.2.23-.33.35-.68.13a2.17 2.17 0 0 0-3.37 1.87v5.58c-.24-.25-.4-.39-.54-.53l-7.47-7.61a2.16 2.16 0 0 0-3.69.89 2.13 2.13 0 0 0 .6 2.27l6.91 7c1.3 1.33 2.62 2.66 3.91 4a1.1 1.1 0 0 1-.05 1.6 13.21 13.21 0 0 1-7.35 3.26 10.91 10.91 0 0 1-9.39-3.61 8.94 8.94 0 0 1-1.56-2.23 1.56 1.56 0 0 0 .01-1.12 14.39 14.39 0 0 1 .29-4.39c.05-.29.4-.32.37-.64a5.47 5.47 0 0 1 .75-2.52 14.39 14.39 0 0 1 3.64-5 16.64 16.64 0 0 1 4.42-2.85 14.67 14.67 0 0 1 4.12-1.09 2.08 2.08 0 0 1 1.53 0c.31.18.7-.35.56-.72a10.46 10.46 0 0 1-.54-5.89 10 10 0 0 1 3.7-6 9.34 9.34 0 0 1 4.96-2.04c.39 0 .55-.22.45-.67a8.26 8.26 0 0 1-.25-1.79 15.82 15.82 0 0 1 .51-3.14 10.39 10.39 0 0 1 1.72-3.63c.36-.54 1.08-.85 1-1.64A2.31 2.31 0 0 0 46 22.62a1.71 1.71 0 0 0 .87 0 5.24 5.24 0 0 1 6.6 5.28 5.17 5.17 0 0 1-1.34 3.26 2.19 2.19 0 0 0 1.05 3.76 7 7 0 0 1 5 7 6.47 6.47 0 0 1-2 4.62 2.35 2.35 0 0 0 .19 3.59 10.7 10.7 0 0 1 4.05 9.75Z" style="fill:#a7c339"/>
    </g>
  </g>
</svg>
