<svg xmlns="http://www.w3.org/2000/svg" viewBox="0 0 279.96 407.33">
  <g data-name="Layer 2">
    <g data-name="Layer 1">
      <path d="M278.21 327.46c-5-2.89-10.06-5.83-15-8.87-.76-.46-1.13-.24-1.74.07-5.15 2.94-10.26 5.86-15.46 8.7a2.59 2.59 0 0 0-1.54 2.64c.07 3.9 0 7.79.05 11.66a2.64 2.64 0 0 1-1.13 2.45q-19.24 14.15-38.39 28.41c-1.47 1.1-2.57 1.27-4.07.12a17.58 17.58 0 0 0-4-2.37c-2.08-.86-2.18-2-1.42-4Q208 333 220.37 299.66c1.42-3.89 2.74-7.62 7.25-9 .9-.27 1.2-1.13 1.17-2.16-.07-3.53-.07-7 0-10.55a2.07 2.07 0 0 0-1.22-2.09 992.52 992.52 0 0 1-9.53-5.61 1.62 1.62 0 0 0-2 0c-3.11 1.86-6.29 3.57-9.48 5.31a2 2 0 0 0-1.2 2.11c.08 1.93 0 3.87-.05 5.83a1.82 1.82 0 0 1-1.44 2.08c-9.5 3-19 6.17-28.44 9.33a1.81 1.81 0 0 1-1.81-.2c-8.33-4.94-16.65-9.87-25-14.74a2.79 2.79 0 0 1-1.57-2.82c.08-11.58.05-23.17.05-34.75v-2l2.33 1.42c12.83 7.71 26.7 10.9 41.49 8.5a55.49 55.49 0 0 0 34.31-19.43c11.46-13.56 15.43-29.31 12.81-46.65a53.7 53.7 0 0 0-13.47-28.14c-1-1.15-.81-1.89-.1-3.06a41.91 41.91 0 0 0-13.24-57.24c-1.22-.76-1.37-1.37-.86-2.6a34.34 34.34 0 0 0 2.16-19.86 35.52 35.52 0 0 0-31.28-28.83c-1.37-.17-1.78-.39-1.91-1.88-.61-8-2.54-15.68-7-22.51-6.26-9.55-15.38-15.18-26-18.76C143 .23 139.62-.6 136.12.55a76.86 76.86 0 0 0-10.44 4c-14.76 7.45-23.09 19.34-24.78 35.8-.39 3.87-.25 3.89-4.14 4.51C74.52 48.26 61 71.67 69.33 92.54c.74 1.84.52 2.62-1.1 3.67-17.73 11.49-24 35.52-14.13 54.2.76 1.45 2.32 2.94 2.15 4.24s-1.93 2.67-3 4c-10.13 13.1-13.86 28-11.43 44.25A54.67 54.67 0 0 0 56.67 233a56.13 56.13 0 0 0 36.22 17.81 59.46 59.46 0 0 0 36-8c1.86-1.07 2.11-.63 2.09 1.25-.05 11.37-.08 22.73 0 34.09a3.38 3.38 0 0 1-2 3.31q-11 6.44-21.92 13a3.54 3.54 0 0 1-3.24.32q-13.67-4.51-27.38-9c-1.1-.36-1.69-.83-1.59-2.15.12-1.79 0-3.6 0-5.39a2.75 2.75 0 0 0-1.69-2.79c-3-1.54-6-3.26-8.89-5a2.1 2.1 0 0 0-2.5.07 186.23 186.23 0 0 1-8.82 5.17 2.55 2.55 0 0 0-1.47 2.69 80.53 80.53 0 0 1 .05 9.19 3.66 3.66 0 0 0 2.62 4.16 7.18 7.18 0 0 1 4.34 4.83c3.62 10.09 7.44 20.1 11.21 30.17q7.6 20.31 15.29 40.58a1.71 1.71 0 0 1-.91 2.5c-2 1.1-3.89 2.2-5.75 3.4a1.92 1.92 0 0 1-2.55-.19Q56.16 358.42 36.59 344a2.63 2.63 0 0 1-1.2-2.43v-12.12a1.81 1.81 0 0 0-1-1.94 935.26 935.26 0 0 1-15.45-8.64 2.5 2.5 0 0 0-2.84.15c-4.83 2.86-9.65 5.68-14.5 8.49a2.75 2.75 0 0 0-1.6 2.93c.52 5.66.34 11.37.34 17.05a2.28 2.28 0 0 0 1.33 2.25c5 2.77 10 5.54 15 8.38a2.6 2.6 0 0 0 2.89-.1c3.35-2 6.78-3.92 10.06-6a2.74 2.74 0 0 1 3.63.15q19.2 14.33 38.54 28.53A2.63 2.63 0 0 1 73 383c0 4.18.07 8.37 0 12.54a2.54 2.54 0 0 0 1.57 2.62q7.75 4.26 15.43 8.71a2.28 2.28 0 0 0 2.65 0q7.81-4.69 15.69-9.28a1.86 1.86 0 0 0 1.08-1.93c0-6.15-.07-12.27 0-18.42a2 2 0 0 0-1.33-2c-4.21-2.35-8.35-4.8-12.58-7.1a4.57 4.57 0 0 1-2.23-2.6l-25.61-68.75c-.27-.76-1.23-1.76-.42-2.3 1.15-.78 2.15-2.13 4-1.52 9.26 3.09 18.54 6.08 27.85 9.07a2.27 2.27 0 0 1 1.78 2.57c.08 12.19.27 24.37.32 36.56a3.52 3.52 0 0 0 2.08 3.63 2752.28 2752.28 0 0 1 35.17 19.78 2.66 2.66 0 0 0 3 0q17.82-10.11 35.73-20.11a2.63 2.63 0 0 0 1.52-2.65c0-3.35.15-6.73.17-10.09.05-9 .05-17.95.1-26.91 0-1-.2-2 1.25-2.48 9.6-3.11 19.15-6.29 28.75-9.42 1.54-.49 2.55.83 3.63 1.54.9.61-.05 1.49-.3 2.15-2.28 6.27-4.63 12.54-7 18.79l-18.66 49.84a5.57 5.57 0 0 1-2.74 3.21c-4 2.17-8 4.48-12 6.73-.62.37-1.23.61-1.23 1.59-.07 6.37-.19 12.71-.37 19.06a1.78 1.78 0 0 0 1.06 1.73c5.31 3.14 10.6 6.25 15.87 9.41a2.14 2.14 0 0 0 2.42.05q7.94-4.51 15.9-8.94a2.1 2.1 0 0 0 1.2-2.08c.09-4.34-.13-8.67.32-13a3.16 3.16 0 0 1 1.32-2.6q19.5-14.33 38.94-28.7a1.56 1.56 0 0 1 2.13-.1c3.48 2.13 7 4.14 10.51 6.22 1.05.64 1.95 1.1 3.23.34 5.07-2.94 10.16-5.75 15.26-8.59a2 2 0 0 0 1.2-2.11c0-5.68 0-11.36.19-17a2.84 2.84 0 0 0-1.64-3ZM143.27 166.92a8 8 0 0 0-12.39 6.88c-.08 6.64 0 13.27 0 20.52-.9-.9-1.47-1.42-2-2-9.19-9.33-18.3-18.68-27.51-28-4.55-4.58-11.58-2.86-13.59 3.28-1 3.21-.07 6 2.23 8.36q12.68 13 25.42 25.93c4.8 4.9 9.63 9.8 14.38 14.74a4.06 4.06 0 0 1-.17 5.91c-7.86 6.58-16.78 11.07-27.07 12C89 235.76 77.36 231.4 68 221.31a33.21 33.21 0 0 1-5.73-8.2 40.11 40.11 0 0 1-4.55-23.93c1.37-11.36 6.61-20.38 15.38-27.55 3.67-3 3.7-8.62.12-12.25A25.15 25.15 0 0 1 66.34 137a25.81 25.81 0 0 1 18-30.57c6.27-1.79 8.35-8.84 4-13.66-5-5.59-6.25-12-4-19 2.36-7.42 7.79-11.66 15.36-13.05 2.72-.49 5.49 0 8.2.49a7.85 7.85 0 0 0 9.21-7.45c.08-3.55-.39-7.08-.09-10.7.8-10.21 5.14-18.22 14.37-22.9s7.94-4.87 17.54.12c8.32 4.36 12.81 11.54 14 20.94.56 4.41.22 8.77 0 13.15a8.42 8.42 0 0 0 6.44 6.86 6.13 6.13 0 0 0 3.21 0 19.29 19.29 0 0 1 24.27 19.45 18.92 18.92 0 0 1-4.93 12c-4.65 5.32-2.86 11.71 3.85 13.84 11.66 3.7 18.93 13.59 18.56 25.69a23.76 23.76 0 0 1-7.32 17c-3.77 3.65-3.8 9.45.69 13.22 11.19 9.33 16.13 21.51 14.67 35.93a40.52 40.52 0 0 1-34.39 36c-15.55 2.23-28.41-3.52-39.8-13.56a3.06 3.06 0 0 1-1-2.53v-26.91a4.48 4.48 0 0 1 1.27-3.19l26.89-30.63c2.06-2.35 4.17-4.68 6.2-7.06 3.36-4 3.11-8.81-.54-12s-8.42-2.55-11.85 1.37q-11.66 13.33-23.27 26.65c-.88.79-1.31 1.23-2.61.42Z" style="fill:#e6e7e8"/>
      <path d="M222.33 198.29a40.52 40.52 0 0 1-34.39 36c-15.55 2.23-28.41-3.52-39.8-13.56a3.06 3.06 0 0 1-1-2.53v-26.91a4.48 4.48 0 0 1 1.27-3.19l26.89-30.63c2.06-2.35 4.17-4.68 6.2-7.06 3.36-4 3.11-8.81-.54-12s-8.42-2.55-11.85 1.37q-11.66 13.33-23.27 26.65c-.76.86-1.22 1.3-2.52.49a8 8 0 0 0-12.39 6.88c-.08 6.64 0 13.27 0 20.52-.9-.9-1.47-1.42-2-2-9.19-9.33-18.3-18.68-27.51-28-4.55-4.58-11.58-2.86-13.59 3.28-1 3.21-.07 6 2.23 8.36q12.68 13 25.42 25.93c4.8 4.9 9.63 9.8 14.38 14.74a4.06 4.06 0 0 1-.17 5.91c-7.86 6.58-16.78 11.07-27.07 12C89 235.76 77.36 231.4 68 221.31a33.21 33.21 0 0 1-5.73-8.2c.88-1.37.49-2.87.3-4.29-.76-5.46.14-10.8 1-16.16.17-1 1.47-1.15 1.37-2.33-.27-3.43 1.49-6.32 2.74-9.28a53.88 53.88 0 0 1 13.4-18.42 61.2 61.2 0 0 1 16.26-10.45 54.18 54.18 0 0 1 15.19-4.05c1.86-.29 3.65-1 5.6.18 1.16.66 2.6-1.3 2.09-2.67a38.24 38.24 0 0 1-2-21.68 36.93 36.93 0 0 1 13.61-22 34.57 34.57 0 0 1 18.23-7.69c1.44-.15 2-.81 1.66-2.45a29.87 29.87 0 0 1-1.1-6.59c.07-3.94 1.2-7.66 2.06-11.48 1.1-5 3.52-9.21 6.32-13.35 1.32-2 4-3.14 3.82-6a8.42 8.42 0 0 0 6.44 6.86 6.13 6.13 0 0 0 3.21 0 19.29 19.29 0 0 1 24.27 19.45 18.92 18.92 0 0 1-4.93 12c-4.65 5.32-2.86 11.71 3.85 13.84 11.66 3.7 18.93 13.59 18.56 25.69a23.76 23.76 0 0 1-7.32 17c-3.77 3.65-3.8 9.45.69 13.22 11.26 9.23 16.2 21.41 14.74 35.83Z" style="fill:#a7c339"/>
    </g>
  </g>
</svg>
